<svg width="110" height="110" viewBox="0 0 110 110" fill="none" xmlns="http://www.w3.org/2000/svg">
<path fill-rule="evenodd" clip-rule="evenodd" d="M55.0001 68.4721C47.035 68.4721 40.4976 75.0084 40.4976 82.9712V91.946H38.4976V82.9712C38.4976 73.9034 45.9308 66.4721 55.0001 66.4721H60.8212C69.8904 66.4721 77.3236 73.9034 77.3236 82.9712V91.946H75.3236V82.9712C75.3236 75.0084 68.7862 68.4721 60.8212 68.4721H55.0001Z" fill="#D3D3D3"/>
<path fill-rule="evenodd" clip-rule="evenodd" d="M67.9427 57.0565C69.248 51.53 65.825 45.9913 60.2964 44.6861C54.7677 43.3809 49.2282 46.8037 47.923 52.3303C46.6177 57.8568 50.0407 63.3955 55.5693 64.7007C61.098 66.0059 66.6375 62.583 67.9427 57.0565ZM60.7561 42.7397C67.3594 44.2986 71.4484 50.9142 69.8892 57.516C68.3299 64.1178 61.7129 68.206 55.1096 66.6471C48.5064 65.0882 44.4174 58.4726 45.9766 51.8708C47.5358 45.2689 54.1528 41.1808 60.7561 42.7397Z" fill="#D3D3D3"/>
<path fill-rule="evenodd" clip-rule="evenodd" d="M47.9425 79.418V91.946H45.9425V79.418H47.9425Z" fill="#D3D3D3"/>
<path fill-rule="evenodd" clip-rule="evenodd" d="M67.9094 91.946V79.418H69.9094V91.946H67.9094Z" fill="#D3D3D3"/>
<path fill-rule="evenodd" clip-rule="evenodd" d="M105 97L5.00024 97L5.00024 95L105 95V97Z" fill="#D3D3D3"/>
<path fill-rule="evenodd" clip-rule="evenodd" d="M4.91919 12.9189C4.91919 12.3667 5.3669 11.9189 5.91919 11.9189H104.081C104.633 11.9189 105.081 12.3667 105.081 12.9189V59.5081C105.081 60.0604 104.633 60.5081 104.081 60.5081H73.505V58.5081H103.081V13.9189H6.91919V58.5081H18.8175C18.9945 58.5081 19.1684 58.5551 19.3214 58.6444L34.3304 67.4L32.4006 59.7528C32.3251 59.4539 32.3918 59.1368 32.5813 58.8936C32.7708 58.6504 33.0618 58.5081 33.3702 58.5081H41.7035V60.5081H34.6539L36.852 69.2184C36.9505 69.6088 36.8053 70.0202 36.4836 70.2622C36.1618 70.5043 35.7263 70.5297 35.3785 70.3269L18.5471 60.5081H5.91919C5.3669 60.5081 4.91919 60.0604 4.91919 59.5081V12.9189Z" fill="#D3D3D3"/>
<path fill-rule="evenodd" clip-rule="evenodd" d="M24.2096 23.9045H17.5613V21.9045H24.2096V23.9045Z" fill="#D3D3D3"/>
<path fill-rule="evenodd" clip-rule="evenodd" d="M37.5368 23.9045H30.8886V21.9045H37.5368V23.9045Z" fill="#D3D3D3"/>
<path fill-rule="evenodd" clip-rule="evenodd" d="M50.8334 23.9045H44.1851V21.9045H50.8334V23.9045Z" fill="#D3D3D3"/>
<path fill-rule="evenodd" clip-rule="evenodd" d="M64.1606 23.9045H57.4817V21.9045H64.1606V23.9045Z" fill="#D3D3D3"/>
<path fill-rule="evenodd" clip-rule="evenodd" d="M77.4572 23.9045H70.8089V21.9045H77.4572V23.9045Z" fill="#D3D3D3"/>
<path fill-rule="evenodd" clip-rule="evenodd" d="M90.7844 23.9045H84.1055V21.9045H90.7844V23.9045Z" fill="#D3D3D3"/>
<path fill-rule="evenodd" clip-rule="evenodd" d="M24.2096 32.2054H17.5613V30.2054H24.2096V32.2054Z" fill="#D3D3D3"/>
<path fill-rule="evenodd" clip-rule="evenodd" d="M37.5368 32.2054H30.8886V30.2054H37.5368V32.2054Z" fill="#D3D3D3"/>
<path fill-rule="evenodd" clip-rule="evenodd" d="M50.8334 32.2054H44.1851V30.2054H50.8334V32.2054Z" fill="#D3D3D3"/>
<path fill-rule="evenodd" clip-rule="evenodd" d="M64.1606 32.2054H57.4817V30.2054H64.1606V32.2054Z" fill="#D3D3D3"/>
<path fill-rule="evenodd" clip-rule="evenodd" d="M77.4572 32.2054H70.8089V30.2054H77.4572V32.2054Z" fill="#D3D3D3"/>
<path fill-rule="evenodd" clip-rule="evenodd" d="M90.7844 32.2054H84.1055V30.2054H90.7844V32.2054Z" fill="#D3D3D3"/>
</svg>
