<svg width="40" height="40" viewBox="0 0 40 40" fill="none" xmlns="http://www.w3.org/2000/svg">
<path d="M19.3794 20.7013L27.138 12.9091" stroke="#0067AA" stroke-width="2" stroke-miterlimit="10" stroke-linecap="round"/>
<path d="M38 6.67532L31.7931 12.9091H27.1379V8.23377L33.3448 2V6.67532H38Z" stroke="#0067AA" stroke-width="2" stroke-miterlimit="10" stroke-linecap="round" stroke-linejoin="round"/>
<path d="M36.4482 20.7013C36.4482 30.2078 28.8448 37.8442 19.3793 37.8442C9.91375 37.8442 2.3103 30.2078 2.3103 20.7013C2.3103 11.1948 9.91375 3.55847 19.3793 3.55847" stroke="#0067AA" stroke-width="2" stroke-miterlimit="10" stroke-linecap="round" stroke-linejoin="round"/>
<path d="M35.0517 14C35.9828 16.026 36.4483 18.3636 36.4483 20.7013C36.4483 23.039 35.9828 25.3766 35.0517 27.4026C34.1207 29.4286 32.8793 31.2987 31.3276 32.8571C29.7759 34.4156 27.9138 35.6623 25.8966 36.5974C23.8793 37.5325 21.5517 38 19.2241 38C16.8966 38 14.569 37.5325 12.5517 36.5974C10.5345 35.6623 8.67241 34.4156 7.12069 32.8571C5.56897 31.2987 4.32759 29.4286 3.39655 27.4026C2.46552 25.3766 2 23.039 2 20.7013C2 18.3636 2.46552 16.026 3.39655 14C4.32759 11.974 5.56897 10.1039 7.12069 8.54544C8.67241 6.987 10.5345 5.74025 12.5517 4.80519C14.569 3.87012 16.8966 3.40259 19.2241 3.40259C21.5517 3.40259 23.8793 3.87012 25.8966 4.80519" stroke="#0067AA" stroke-width="2" stroke-miterlimit="10" stroke-linecap="round" stroke-linejoin="round"/>
<path d="M27.293 17.4286C27.7585 18.5195 27.9137 19.6104 27.9137 20.7013C27.9137 21.7922 27.6033 23.039 27.293 23.974C26.8275 25.0649 26.2068 26 25.4309 26.6234C24.6551 27.4026 23.724 28.026 22.793 28.4935C21.7068 28.961 20.6206 29.1169 19.5344 29.1169C18.4482 29.1169 17.2068 28.8052 16.2758 28.4935C15.1896 28.026 14.2585 27.4026 13.6378 26.6234C12.862 25.8442 12.2413 24.9091 11.7758 23.974C11.1551 23.039 10.8447 21.948 10.8447 20.7013C10.8447 19.4545 11.1551 18.3636 11.4654 17.4286C11.9309 16.3377 12.5516 15.4026 13.3275 14.7792C14.1033 14 15.0344 13.3766 15.9654 12.9091C17.0516 12.4416 18.1378 12.2857 19.224 12.2857C20.3102 12.2857 21.5516 12.5974 22.4827 12.9091" stroke="#0067AA" stroke-width="2" stroke-miterlimit="10" stroke-linecap="round" stroke-linejoin="round"/>
</svg>
