<svg width="40" height="40" viewBox="0 0 40 40" fill="none" xmlns="http://www.w3.org/2000/svg">
<path d="M20 37C29.3888 37 37 29.3888 37 20C37 10.6112 29.3888 3 20 3C10.6112 3 3 10.6112 3 20C3 29.3888 10.6112 37 20 37Z" stroke="#0067AA" stroke-width="2" stroke-miterlimit="10"/>
<path d="M20.0001 37C25.3068 37 29.6087 29.3888 29.6087 20C29.6087 10.6112 25.3068 3 20.0001 3C14.6933 3 10.3914 10.6112 10.3914 20C10.3914 29.3888 14.6933 37 20.0001 37Z" stroke="#0067AA" stroke-width="2" stroke-miterlimit="10"/>
<path d="M6.54761 9.65216C9.65196 11.8696 14.5302 13.3478 19.9998 13.3478C25.4693 13.3478 30.3476 11.8696 33.452 9.65216" stroke="#0067AA" stroke-width="2" stroke-miterlimit="10"/>
<path d="M34.1912 29.4608C31.0869 26.9478 25.9129 25.1739 19.9999 25.1739C14.0869 25.1739 8.91294 26.8 5.80859 29.4608" stroke="#0067AA" stroke-width="2" stroke-miterlimit="10"/>
</svg>
