<svg width="25.000000000000004" height="20" xmlns="http://www.w3.org/2000/svg" version="1.1">
 <title/>

 <desc/>
 <g>
  <title>Layer 1</title>
  <g fill="none" fill-rule="evenodd" id="TabBar-Icons">
   <g fill="#000000" id="Hamburger-Round">
    <path stroke-opacity="0" stroke="#000000" d="m0,2c0,-1.10457 0.88976,-2 2.00359,-2l20.99282,0c1.10655,0 2.00359,0.88773 2.00359,2c0,1.10457 -0.88976,2 -2.00359,2l-20.99282,0c-1.10655,0 -2.00359,-0.88773 -2.00359,-2l0,0zm0,8c0,-1.10457 0.88976,-2 2.00359,-2l20.99282,0c1.10655,0 2.00359,0.88773 2.00359,2c0,1.10457 -0.88976,2 -2.00359,2l-20.99282,0c-1.10655,0 -2.00359,-0.88773 -2.00359,-2l0,0zm0,8c0,-1.10457 0.88976,-2 2.00359,-2l20.99282,0c1.10655,0 2.00359,0.88773 2.00359,2c0,1.10457 -0.88976,2 -2.00359,2l-20.99282,0c-1.10655,0 -2.00359,-0.88773 -2.00359,-2l0,0z" id="Hamburger" fill="#0067aa"/>
   </g>
  </g>
 </g>
</svg>