<svg width="198" height="197" xmlns="http://www.w3.org/2000/svg">

 <g>
  <title>Layer 1</title>
  <g transform="rotate(-90 99 99.0128)" id="svg_8">
   <rect transform="rotate(-90 99 99.0128)" stroke="#0067aa" x="0" y="0.51282" id="svg_1" width="198.00002" height="197.00001" fill="none"/>
   <line transform="rotate(-90 99 98.5)" id="svg_2" y2="66.51283" y1="66.51283" x2="130" x1="66" stroke-width="16" stroke-linejoin="round" stroke-linecap="round" stroke="#0067aa" fill="none"/>
   <line transform="rotate(-90 99 98.5)" id="svg_3" y2="98.51283" y1="98.51283" x2="130" x1="66" stroke-width="16" stroke-linejoin="round" stroke-linecap="round" stroke="#0067aa" fill="none"/>
   <line transform="rotate(-90 99 98.5)" id="svg_4" y2="130.51283" y1="130.51283" x2="98" x1="66" stroke-width="16" stroke-linejoin="round" stroke-linecap="round" stroke="#0067aa" fill="none"/>
   <path transform="rotate(-90 99 98.5)" id="svg_5" stroke-width="16" stroke-linejoin="round" stroke-linecap="round" stroke="#0067aa" fill="none" d="m126.7,186.51283l-108.7,0a8,8 0 0 1 -8,-8l0,-160a8,8 0 0 1 8,-8l160,0a8,8 0 0 1 8,8l0,108.7a7.9,7.9 0 0 1 -2.3,5.6l-51.4,51.4a7.9,7.9 0 0 1 -5.6,2.3z"/>
   <polyline transform="rotate(-90 99 98.5)" id="svg_6" stroke-width="16" stroke-linejoin="round" stroke-linecap="round" stroke="#0067aa" points="185.3000030517578,130.51283371448517 130,130.51283371448517 130,185.81283676624298 " fill="none"/>
  </g>
 </g>
</svg>