<svg width="34" height="43" viewBox="0 0 34 43" fill="none" xmlns="http://www.w3.org/2000/svg">
<rect x="0.5" y="0.5" width="33" height="42" stroke="#0067AA"/>
<path d="M6.88068 35V27.7273H9.33807C9.90862 27.7273 10.375 27.8303 10.7372 28.0362C11.1018 28.2398 11.3717 28.5156 11.5469 28.8636C11.7221 29.2116 11.8097 29.5999 11.8097 30.0284C11.8097 30.4569 11.7221 30.8464 11.5469 31.1967C11.3741 31.5471 11.1065 31.8265 10.7443 32.0348C10.3821 32.2408 9.91809 32.3438 9.35227 32.3438H7.59091V31.5625H9.32386C9.71449 31.5625 10.0282 31.495 10.2649 31.3601C10.5017 31.2251 10.6733 31.0429 10.7798 30.8132C10.8887 30.5812 10.9432 30.3196 10.9432 30.0284C10.9432 29.7372 10.8887 29.4768 10.7798 29.2472C10.6733 29.0175 10.5005 28.8376 10.2614 28.7074C10.0223 28.5748 9.70502 28.5085 9.30966 28.5085H7.76136V35H6.88068ZM15.4727 35H13.2283V27.7273H15.5721C16.2776 27.7273 16.8813 27.8729 17.3832 28.1641C17.8851 28.4529 18.2698 28.8684 18.5373 29.4105C18.8048 29.9503 18.9386 30.5966 18.9386 31.3494C18.9386 32.107 18.8036 32.7592 18.5337 33.3061C18.2638 33.8506 17.8709 34.2696 17.3548 34.5632C16.8387 34.8544 16.2113 35 15.4727 35ZM14.109 34.2188H15.4158C16.0172 34.2188 16.5155 34.1027 16.9109 33.8707C17.3062 33.6387 17.601 33.3085 17.7951 32.88C17.9892 32.4515 18.0863 31.9413 18.0863 31.3494C18.0863 30.7623 17.9904 30.2569 17.7987 29.8331C17.6069 29.407 17.3204 29.0803 16.9393 28.853C16.5581 28.6233 16.0835 28.5085 15.5153 28.5085H14.109V34.2188ZM20.4158 35V27.7273H24.7766V28.5085H21.2965V30.9659H24.4499V31.7472H21.2965V35H20.4158Z" fill="#0067AA"/>
<line x1="7" y1="11.5" x2="27" y2="11.5" stroke="#0067AA"/>
<line x1="7" y1="15.5" x2="27" y2="15.5" stroke="#0067AA"/>
<line x1="7" y1="19.5" x2="17" y2="19.5" stroke="#0067AA"/>
</svg>
