<svg width="22" height="22" viewBox="0 0 22 22" fill="none" xmlns="http://www.w3.org/2000/svg">
<g clip-path="url(#clip0_111_1705)">
<path fill-rule="evenodd" clip-rule="evenodd" d="M21.9988 0H-0.201172V22.2H17.3167C17.1568 22.1255 17.0091 22.0203 16.8734 21.8847C16.5723 21.5835 16.4217 21.2227 16.4217 20.8023C16.4217 20.3818 16.5723 20.021 16.8734 19.7199C17.1745 19.4188 17.5353 19.2682 17.9558 19.2682C18.3762 19.2682 18.737 19.4188 19.0382 19.7199C19.3393 20.021 19.4899 20.3818 19.4899 20.8023C19.4899 21.0807 19.4189 21.3364 19.2768 21.5693C19.1404 21.8023 18.9558 21.9898 18.7228 22.1318C18.6811 22.1569 18.6385 22.1796 18.5949 22.2H21.9988V12.4417C21.7049 12.7262 21.3686 12.9847 20.9899 13.2171C20.4899 13.5296 20.0893 13.8591 19.7882 14.2057C19.487 14.5466 19.2683 14.9529 19.1319 15.4244C18.9956 15.896 18.9217 16.4841 18.9103 17.1887V17.2909H16.8649V17.1887C16.8762 16.1034 16.9899 15.2398 17.2058 14.5977C17.4217 13.9557 17.7285 13.4358 18.1262 13.0381C18.524 12.6404 19.0012 12.2739 19.5581 11.9387C19.8933 11.7341 20.1944 11.4926 20.4615 11.2142C20.7285 10.9301 20.9387 10.6034 21.0922 10.2341C21.2512 9.86479 21.3308 9.4557 21.3308 9.00684C21.3308 8.45002 21.2001 7.96706 20.9387 7.55797C20.6774 7.14888 20.3279 6.83354 19.8904 6.61195C19.4529 6.39036 18.9672 6.27956 18.4331 6.27956C17.9672 6.27956 17.5183 6.37615 17.0865 6.56934C16.6547 6.76252 16.2939 7.06649 16.0041 7.48127C15.7143 7.89604 15.5467 8.43865 15.5012 9.10911H13.3535C13.399 8.1432 13.649 7.31649 14.1035 6.62899C14.5637 5.94149 15.1689 5.41593 15.9189 5.05229C16.6745 4.68865 17.5126 4.50684 18.4331 4.50684C19.4331 4.50684 20.3024 4.7057 21.041 5.10343C21.3999 5.29521 21.7192 5.52133 21.9988 5.78181V0Z" fill="#8CC63F"/>
</g>
<defs>
<clipPath id="clip0_111_1705">
<rect width="22" height="22" fill="white"/>
</clipPath>
</defs>
</svg>
