<svg width="40" height="35" viewBox="0 0 40 35" fill="none" xmlns="http://www.w3.org/2000/svg">
<path d="M13.1714 29.24C13.5192 28.8922 13.8671 28.3704 14.9107 28.3704C15.9543 28.3704 26.651 28.3704 27.6946 28.3704C28.6512 28.3704 33.9561 23.0655 34.6518 22.2828C35.2606 21.5871 38.2174 17.2388 39.0001 15.3256C38.4783 14.6299 37.1738 14.1081 35.5215 14.4559C33.9561 14.8038 33.0864 15.9343 32.0428 17.9345L28.0424 20.0217" stroke="#0067AA" stroke-width="2" stroke-miterlimit="10" stroke-linejoin="round"/>
<path d="M18.1282 23.1524C18.1282 23.1524 25.0854 23.1524 25.955 23.1524C29.4336 23.1524 29.4336 18.8042 25.955 18.8042C25.0854 18.8042 23.1721 18.8042 20.7371 18.8042C20.0414 18.8042 18.65 17.0649 17.5194 17.0649C16.9976 17.0649 14.3887 17.0649 13.1711 17.0649C11.9536 17.0649 10.5622 18.0215 9.69253 18.8042C8.38805 20.1087 6.12695 22.2828 6.12695 22.2828" stroke="#0067AA" stroke-width="2" stroke-miterlimit="10" stroke-linejoin="round"/>
<path d="M4.50511 20.486L1 23.9911L10.5929 33.5841L14.098 30.079L4.50511 20.486Z" stroke="#0067AA" stroke-width="2" stroke-miterlimit="10" stroke-linejoin="round"/>
<path d="M23.346 10.1077C25.3462 10.1077 26.8247 8.45532 26.8247 6.36815V5.15064C26.8247 3.06347 25.3462 1.41113 23.346 1.41113C21.3458 1.41113 19.8674 3.06347 19.8674 5.15064V6.36815C19.8674 8.45532 21.3458 10.1077 23.346 10.1077Z" stroke="#0067AA" stroke-width="2" stroke-miterlimit="10"/>
<path d="M30.3034 15.3256V13.5863C30.3034 11.1512 25.6942 10.1077 23.3461 10.1077C20.9981 10.1077 16.3889 11.1512 16.3889 13.5863V15.3256" stroke="#0067AA" stroke-width="2" stroke-miterlimit="10"/>
</svg>
