<svg width="92" height="74" viewBox="0 0 92 74" fill="none" xmlns="http://www.w3.org/2000/svg">
<rect width="92" height="74" rx="5" fill="black" fill-opacity="0.3"/>
<path d="M20.4295 56V47.2727H21.7463V51.0653H26.0971V47.2727H27.4181V56H26.0971V52.1946H21.7463V56H20.4295ZM31.273 56H29.8752L33.0159 47.2727H34.5372L37.6778 56H36.2801L33.8127 48.858H33.7446L31.273 56ZM31.5074 52.5824H36.0414V53.6903H31.5074V52.5824ZM40.1381 56V47.2727H43.3341C43.9534 47.2727 44.4662 47.375 44.8725 47.5795C45.2787 47.7812 45.5827 48.0554 45.7844 48.402C45.9861 48.7457 46.087 49.1335 46.087 49.5653C46.087 49.929 46.0202 50.2358 45.8867 50.4858C45.7532 50.733 45.5742 50.9318 45.3498 51.0824C45.1282 51.2301 44.8838 51.3381 44.6168 51.4062V51.4915C44.9066 51.5057 45.1892 51.5994 45.4648 51.7727C45.7432 51.9432 45.9733 52.1861 46.1551 52.5014C46.337 52.8168 46.4279 53.2003 46.4279 53.652C46.4279 54.098 46.3228 54.4986 46.1125 54.8537C45.9051 55.206 45.5841 55.4858 45.1495 55.6932C44.7148 55.8977 44.1594 56 43.4833 56H40.1381ZM41.4549 54.8707H43.3554C43.9861 54.8707 44.4378 54.7486 44.7105 54.5043C44.9833 54.2599 45.1196 53.9545 45.1196 53.5881C45.1196 53.3125 45.05 53.0597 44.9108 52.8295C44.7716 52.5994 44.5728 52.4162 44.3142 52.2798C44.0586 52.1435 43.7546 52.0753 43.4023 52.0753H41.4549V54.8707ZM41.4549 51.0483H43.2191C43.5145 51.0483 43.7801 50.9915 44.0159 50.8778C44.2546 50.7642 44.4435 50.6051 44.5827 50.4006C44.7248 50.1932 44.7958 49.9489 44.7958 49.6676C44.7958 49.3068 44.6694 49.0043 44.4165 48.7599C44.1637 48.5156 43.7759 48.3935 43.2532 48.3935H41.4549V51.0483ZM49.1897 56V47.2727H54.6613V48.4062H50.5064V51.0653H54.3757V52.1946H50.5064V54.8665H54.7124V56H49.1897ZM57.6201 56V47.2727H60.7309C61.4099 47.2727 61.9724 47.3963 62.4184 47.6435C62.8645 47.8906 63.1983 48.2287 63.4199 48.6577C63.6414 49.0838 63.7522 49.5639 63.7522 50.098C63.7522 50.6349 63.64 51.1179 63.4156 51.5469C63.194 51.973 62.8588 52.3111 62.4099 52.5611C61.9639 52.8082 61.4028 52.9318 60.7267 52.9318H58.5875V51.8153H60.6074C61.0363 51.8153 61.3843 51.7415 61.6514 51.5938C61.9184 51.4432 62.1145 51.2386 62.2395 50.9801C62.3645 50.7216 62.427 50.4276 62.427 50.098C62.427 49.7685 62.3645 49.4759 62.2395 49.2202C62.1145 48.9645 61.917 48.7642 61.6471 48.6193C61.3801 48.4744 61.0278 48.402 60.5903 48.402H58.9369V56H57.6201ZM67.4121 47.2727L69.5002 50.6861H69.5684L71.6564 47.2727H73.182L70.4632 51.6364L73.199 56H71.665L69.5684 52.6335H69.5002L67.4036 56H65.8695L68.6522 51.6364L65.8865 47.2727H67.4121Z" fill="white"/>
<path d="M60.1421 33L46 18.8579L31.8579 33" stroke="white" stroke-width="1.5" stroke-linecap="round"/>
</svg>
